HIERARCHY
ROOT Hips
{
	OFFSET -0.001795 -0.223333 0.028219
	CHANNELS 6 Xposition Yposition Zposition Zrotation Yrotation Xrotation
	JOINT LeftUpLeg
	{
		OFFSET 0.069520 -0.091406 -0.006815
		CHANNELS 3 Zrotation Yrotation Xrotation
		JOINT LeftLeg
		{
			OFFSET 0.034277 -0.375199 -0.004496
			CHANNELS 3 Zrotation Yrotation Xrotation
			JOINT LeftFoot
			{
				OFFSET -0.013596 -0.397961 -0.043693
				CHANNELS 3 Zrotation Yrotation Xrotation
				JOINT LeftToe
				{
					OFFSET 0.026358 -0.055791 0.119288
					CHANNELS 3 Zrotation Yrotation Xrotation
					End Site
					{
						OFFSET 0.000000 0.000000 0.000000
					}
				}
			}
		}
	}
	JOINT RightUpLeg
	{
		OFFSET -0.067670 -0.090522 -0.004320
		CHANNELS 3 Zrotation Yrotation Xrotation
		JOINT RightLeg
		{
			OFFSET -0.038290 -0.382569 -0.008850
			CHANNELS 3 Zrotation Yrotation Xrotation
			JOINT RightFoot
			{
				OFFSET 0.015774 -0.398415 -0.042312
				CHANNELS 3 Zrotation Yrotation Xrotation
				JOINT RightToe
				{
					OFFSET -0.025372 -0.048144 0.123348
					CHANNELS 3 Zrotation Yrotation Xrotation
					End Site
					{
						OFFSET 0.000000 0.000000 0.000000
					}
				}
			}
		}
	}
	JOINT Spine
	{
		OFFSET -0.002533 0.108963 -0.026696
		CHANNELS 3 Zrotation Yrotation Xrotation
		JOINT Spine1
		{
			OFFSET 0.005487 0.135180 0.001092
			CHANNELS 3 Zrotation Yrotation Xrotation
			JOINT Spine2
			{
				OFFSET 0.001457 0.052922 0.025425
				CHANNELS 3 Zrotation Yrotation Xrotation
				JOINT Neck
				{
					OFFSET -0.002778 0.213870 -0.042857
					CHANNELS 3 Zrotation Yrotation Xrotation
					JOINT Head
					{
						OFFSET 0.005152 0.064970 0.051349
						CHANNELS 3 Zrotation Yrotation Xrotation
						End Site
						{
							OFFSET 0.000000 0.000000 0.000000
						}
					}
				}
				JOINT LeftShoulder
				{
					OFFSET 0.078845 0.121749 -0.034090
					CHANNELS 3 Zrotation Yrotation Xrotation
					JOINT LeftArm
					{
						OFFSET 0.090977 0.030469 -0.008868
						CHANNELS 3 Zrotation Yrotation Xrotation
						JOINT LeftForeArm
						{
							OFFSET 0.259612 -0.012772 -0.027456
							CHANNELS 3 Zrotation Yrotation Xrotation
							JOINT LeftHand
							{
								OFFSET 0.249234 0.008986 -0.001171
								CHANNELS 3 Zrotation Yrotation Xrotation
								End Site
								{
									OFFSET 0.000000 0.000000 0.000000
								}
							}
						}
					}
				}
				JOINT RightShoulder
				{
					OFFSET -0.081759 0.118833 -0.038615
					CHANNELS 3 Zrotation Yrotation Xrotation
					JOINT RightArm
					{
						OFFSET -0.096012 0.032551 -0.009143
						CHANNELS 3 Zrotation Yrotation Xrotation
						JOINT RightForeArm
						{
							OFFSET -0.253742 -0.013329 -0.021401
							CHANNELS 3 Zrotation Yrotation Xrotation
							JOINT RightHand
							{
								OFFSET -0.255298 0.007772 -0.005559
								CHANNELS 3 Zrotation Yrotation Xrotation
								End Site
								{
									OFFSET 0.000000 0.000000 0.000000
								}
							}
						}
					}
				}
			}
		}
	}
}
MOTION
Frames: 5
Frame Time: 0.050000
0.000000 0.377646 0.000000 -6.166596 10.301568 -19.864305 29.821139 6.536070 -68.692069 -16.140577 38.420078 138.239658 10.974740 25.833166 -22.352699 0.000000 0.000000 0.000000 -16.430362 -10.394149 -74.595346 36.022344 -54.280226 109.172687 -15.317632 -49.486322 -16.287224 0.000000 0.000000 0.000000 -17.311831 5.989028 98.811031 9.010938 -0.427140 -34.008036 15.241607 24.754540 31.759148 4.776308 3.439417 -25.736846 0.000000 0.000000 0.000000 -26.586151 -28.743517 7.408594 -33.783494 -27.565466 3.890391 35.063608 -44.921985 -16.185479 0.000000 0.000000 0.000000 2.216617 24.116102 8.842888 26.513574 25.475949 1.340411 -40.517030 43.199548 -11.436316 0.000000 0.000000 0.000000
-0.001884 0.365304 0.003632 -7.052795 10.087034 -20.274277 31.107394 7.266987 -68.989848 -15.935278 39.433613 139.340992 11.420891 27.588347 -23.365827 0.000000 0.000000 0.000000 -15.380453 -10.187968 -77.577872 36.936403 -56.627158 110.370852 -17.251855 -51.144997 -11.384761 0.000000 0.000000 0.000000 -16.878435 5.378621 99.033296 9.131609 -0.316899 -35.046243 14.839553 24.712877 33.651188 4.455392 4.231664 -31.562830 0.000000 0.000000 0.000000 -26.934490 -26.957214 6.427668 -33.516298 -29.439823 4.127206 33.333379 -41.916851 -14.145268 0.000000 0.000000 0.000000 4.036257 26.673808 10.519136 25.372483 24.282427 0.761562 -41.535339 44.000840 -12.445209 0.000000 0.000000 0.000000
-0.003218 0.352051 0.009541 -6.750745 10.871064 -22.021608 29.636039 5.988846 -69.903590 -14.972871 38.605288 141.329953 12.624030 29.969433 -19.665071 0.000000 0.000000 0.000000 -16.627822 -11.797182 -77.352929 42.364410 -60.668770 106.776666 -21.262478 -56.653030 -5.830157 0.000000 0.000000 0.000000 -15.454684 3.383697 100.296845 11.472564 -0.631077 -34.727704 10.548626 25.512164 31.191797 10.406722 0.309188 -28.970248 0.000000 0.000000 0.000000 -30.970094 -26.628291 5.618321 -30.578530 -24.988257 3.248155 30.333375 -43.779093 -13.211076 0.000000 0.000000 0.000000 5.391282 27.001191 11.243832 26.661423 22.915701 0.551837 -36.639212 44.294529 -10.780052 0.000000 0.000000 0.000000
-0.003836 0.337107 0.018285 -6.664549 10.307191 -25.287873 29.351830 5.916011 -68.034326 -13.548826 39.568687 145.750040 11.704336 28.248264 -20.697509 0.000000 0.000000 0.000000 -15.902890 -10.560243 -75.533095 47.234439 -64.110868 103.595107 -26.992393 -63.684147 -0.942550 0.000000 0.000000 0.000000 -14.946241 3.365364 102.667118 8.984586 -0.240750 -35.102444 10.704162 21.993252 30.311202 7.783292 1.475338 -31.661589 0.000000 0.000000 0.000000 -33.153494 -24.384805 5.886156 -28.917591 -24.972055 2.753099 31.112388 -44.604062 -13.226358 0.000000 0.000000 0.000000 2.882543 27.871593 9.915104 29.145613 23.331448 1.035948 -33.374258 43.493667 -9.522765 0.000000 0.000000 0.000000
-0.004257 0.326528 0.029059 -6.953161 10.567628 -26.989887 28.396948 5.046478 -66.400578 -13.368101 40.257646 146.908484 12.780874 31.369516 -19.347549 0.000000 0.000000 0.000000 -15.691484 -9.929448 -71.798717 44.504685 -64.454091 107.346011 -21.066442 -62.908790 -11.312458 0.000000 0.000000 0.000000 -14.938866 2.956184 102.073046 9.618248 -0.596072 -33.284991 10.618033 22.240659 28.378631 7.056262 1.636823 -29.150990 0.000000 0.000000 0.000000 -33.840574 -23.787644 5.164316 -29.762891 -23.033822 2.665549 28.559163 -44.565049 -12.145439 0.000000 0.000000 0.000000 3.183170 28.204355 10.150956 31.838036 21.774678 0.942877 -33.154528 44.025502 -9.451213 0.000000 0.000000 0.000000
